<svg width="184" height="76" viewBox="0 0 184 76" fill="none" xmlns="http://www.w3.org/2000/svg">
<path d="M27.0264 28.3232V42.9717C26.5218 43.5088 25.7812 44.1354 24.8047 44.8516C23.8444 45.5514 22.583 46.1699 21.0205 46.707C19.4743 47.2279 17.5863 47.4883 15.3564 47.4883C13.387 47.4883 11.5967 47.179 9.98535 46.5605C8.3903 45.9421 7.01497 45.0062 5.85938 43.7529C4.72005 42.4834 3.84928 40.9046 3.24707 39.0166C2.64486 37.1123 2.34375 34.8581 2.34375 32.2539V26.1992C2.34375 23.6276 2.62858 21.3896 3.19824 19.4854C3.78418 17.5648 4.63053 15.9697 5.7373 14.7002C6.84408 13.4307 8.16243 12.4867 9.69238 11.8682C11.2386 11.2497 12.9801 10.9404 14.917 10.9404C17.5863 10.9404 19.7754 11.388 21.4844 12.2832C23.2096 13.1784 24.5117 14.5049 25.3906 16.2627C26.2858 18.0205 26.8229 20.1771 27.002 22.7324H20.0928C19.9788 21.235 19.7266 20.0632 19.3359 19.2168C18.9616 18.3704 18.4326 17.7682 17.749 17.4102C17.0654 17.0358 16.1784 16.8486 15.0879 16.8486C14.1439 16.8486 13.3219 17.0195 12.6221 17.3613C11.9222 17.6868 11.3363 18.224 10.8643 18.9727C10.3923 19.7214 10.0423 20.6816 9.81445 21.8535C9.58659 23.0254 9.47266 24.4577 9.47266 26.1504V32.2539C9.47266 33.9303 9.60286 35.3626 9.86328 36.5508C10.1237 37.7389 10.5062 38.7074 11.0107 39.4561C11.5316 40.2048 12.1826 40.75 12.9639 41.0918C13.7614 41.4173 14.6973 41.5801 15.7715 41.5801C16.6341 41.5801 17.3258 41.4906 17.8467 41.3115C18.3675 41.1325 18.7826 40.9453 19.0918 40.75C19.4173 40.5384 19.6859 40.3757 19.8975 40.2617V33.7188H14.7949V28.3232H27.0264ZM45.0439 17.8008L37.4023 47H29.8584L40.9668 11.4531H45.6787L45.0439 17.8008ZM51.0742 47L43.3838 17.8008L42.6758 11.4531H47.4609L58.667 47H51.0742ZM51.3428 33.7432V39.6758H35.3027V33.7432H51.3428ZM64.5996 11.4531H70.874L78.125 35.7695L85.3516 11.4531H90.8936L80.7861 47H75.4395L64.5996 11.4531ZM62.0605 11.4531H68.042L68.9697 34.8906V47H62.0605V11.4531ZM88.1592 11.4531H94.165V47H87.2803V34.8906L88.1592 11.4531ZM107.422 11.4531V47H100.317V11.4531H107.422ZM138.379 11.4531V47H131.47L120.312 24.7588V47H113.525V11.4531H120.337L131.592 33.9385V11.4531H138.379ZM168.286 28.3232V42.9717C167.782 43.5088 167.041 44.1354 166.064 44.8516C165.104 45.5514 163.843 46.1699 162.28 46.707C160.734 47.2279 158.846 47.4883 156.616 47.4883C154.647 47.4883 152.856 47.179 151.245 46.5605C149.65 45.9421 148.275 45.0062 147.119 43.7529C145.98 42.4834 145.109 40.9046 144.507 39.0166C143.905 37.1123 143.604 34.8581 143.604 32.2539V26.1992C143.604 23.6276 143.888 21.3896 144.458 19.4854C145.044 17.5648 145.89 15.9697 146.997 14.7002C148.104 13.4307 149.422 12.4867 150.952 11.8682C152.498 11.2497 154.24 10.9404 156.177 10.9404C158.846 10.9404 161.035 11.388 162.744 12.2832C164.469 13.1784 165.771 14.5049 166.65 16.2627C167.546 18.0205 168.083 20.1771 168.262 22.7324H161.353C161.239 21.235 160.986 20.0632 160.596 19.2168C160.221 18.3704 159.692 17.7682 159.009 17.4102C158.325 17.0358 157.438 16.8486 156.348 16.8486C155.404 16.8486 154.582 17.0195 153.882 17.3613C153.182 17.6868 152.596 18.224 152.124 18.9727C151.652 19.7214 151.302 20.6816 151.074 21.8535C150.846 23.0254 150.732 24.4577 150.732 26.1504V32.2539C150.732 33.9303 150.863 35.3626 151.123 36.5508C151.383 37.7389 151.766 38.7074 152.271 39.4561C152.791 40.2048 153.442 40.75 154.224 41.0918C155.021 41.4173 155.957 41.5801 157.031 41.5801C157.894 41.5801 158.586 41.4906 159.106 41.3115C159.627 41.1325 160.042 40.9453 160.352 40.75C160.677 40.5384 160.946 40.3757 161.157 40.2617V33.7188H156.055V28.3232H168.286Z" fill="url(#paint0_linear_115_213)"/>
<path d="M62.043 63.6367V66H56.1348V63.6367H62.043ZM57.0137 51.7812V66H54.1523V51.7812H57.0137ZM71.877 63.6367V66H65.6953V63.6367H71.877ZM66.584 51.7812V66H63.7227V51.7812H66.584ZM71.0469 57.543V59.8379H65.6953V57.543H71.0469ZM71.8574 51.7812V54.1543H65.6953V51.7812H71.8574ZM83.2051 58.5293V64.3887C83.0033 64.6035 82.707 64.8542 82.3164 65.1406C81.9323 65.4206 81.4277 65.668 80.8027 65.8828C80.1842 66.0911 79.429 66.1953 78.5371 66.1953C77.7493 66.1953 77.0332 66.0716 76.3887 65.8242C75.7507 65.5768 75.2005 65.2025 74.7383 64.7012C74.2826 64.1934 73.9342 63.5618 73.6934 62.8066C73.4525 62.0449 73.332 61.1432 73.332 60.1016V57.6797C73.332 56.651 73.446 55.7559 73.6738 54.9941C73.9082 54.2259 74.2467 53.5879 74.6895 53.0801C75.1322 52.5723 75.6595 52.1947 76.2715 51.9473C76.89 51.6999 77.5866 51.5762 78.3613 51.5762C79.429 51.5762 80.3047 51.7552 80.9883 52.1133C81.6784 52.4714 82.1992 53.002 82.5508 53.7051C82.9089 54.4082 83.1237 55.2708 83.1953 56.293H80.4316C80.3861 55.694 80.2852 55.2253 80.1289 54.8867C79.9792 54.5482 79.7676 54.3073 79.4941 54.1641C79.2207 54.0143 78.8659 53.9395 78.4297 53.9395C78.0521 53.9395 77.7233 54.0078 77.4434 54.1445C77.1634 54.2747 76.929 54.4896 76.7402 54.7891C76.5514 55.0885 76.4115 55.4727 76.3203 55.9414C76.2292 56.4102 76.1836 56.9831 76.1836 57.6602V60.1016C76.1836 60.7721 76.2357 61.3451 76.3398 61.8203C76.444 62.2956 76.597 62.6829 76.7988 62.9824C77.0072 63.2819 77.2676 63.5 77.5801 63.6367C77.8991 63.7669 78.2734 63.832 78.7031 63.832C79.0482 63.832 79.3249 63.7962 79.5332 63.7246C79.7415 63.653 79.9076 63.5781 80.0312 63.5C80.1615 63.4154 80.2689 63.3503 80.3535 63.3047V60.6875H78.3125V58.5293H83.2051ZM93.4199 63.6367V66H87.2383V63.6367H93.4199ZM88.127 51.7812V66H85.2656V51.7812H88.127ZM92.5898 57.543V59.8379H87.2383V57.543H92.5898ZM93.4004 51.7812V54.1543H87.2383V51.7812H93.4004ZM105.031 51.7812V66H102.268L97.8047 57.1035V66H95.0898V51.7812H97.8145L102.316 60.7754V51.7812H105.031ZM111.047 66H108.537L108.557 63.6367H111.047C111.737 63.6367 112.274 63.513 112.658 63.2656C113.042 63.0182 113.312 62.6276 113.469 62.0938C113.632 61.5599 113.713 60.86 113.713 59.9941V57.7773C113.713 57.1198 113.671 56.5632 113.586 56.1074C113.501 55.6452 113.358 55.2741 113.156 54.9941C112.954 54.7077 112.684 54.4961 112.346 54.3594C112.007 54.2227 111.587 54.1543 111.086 54.1543H108.488V51.7812H111.086C111.906 51.7812 112.652 51.9147 113.322 52.1816C113.993 52.4486 114.569 52.8392 115.051 53.3535C115.533 53.8613 115.904 54.4896 116.164 55.2383C116.424 55.987 116.555 56.8398 116.555 57.7969V59.9941C116.555 60.9577 116.424 61.8105 116.164 62.5527C115.904 63.2949 115.533 63.9232 115.051 64.4375C114.576 64.9453 113.999 65.3327 113.322 65.5996C112.645 65.8665 111.887 66 111.047 66ZM110.197 51.7812V66H107.336V51.7812H110.197ZM124.66 62.2598C124.66 62.0059 124.637 61.7747 124.592 61.5664C124.546 61.3581 124.449 61.166 124.299 60.9902C124.156 60.8145 123.944 60.6387 123.664 60.4629C123.391 60.2871 123.033 60.1048 122.59 59.916C122.062 59.6947 121.551 59.4603 121.057 59.2129C120.562 58.959 120.116 58.666 119.719 58.334C119.322 58.002 119.006 57.6113 118.771 57.1621C118.544 56.7064 118.43 56.1725 118.43 55.5605C118.43 54.9616 118.537 54.418 118.752 53.9297C118.973 53.4414 119.286 53.0247 119.689 52.6797C120.093 52.3281 120.565 52.0579 121.105 51.8691C121.652 51.6803 122.261 51.5859 122.932 51.5859C123.843 51.5859 124.631 51.7747 125.295 52.1523C125.965 52.5299 126.483 53.0475 126.848 53.7051C127.219 54.3626 127.404 55.1178 127.404 55.9707H124.553C124.553 55.5671 124.494 55.2122 124.377 54.9062C124.266 54.5938 124.087 54.3496 123.84 54.1738C123.592 53.998 123.273 53.9102 122.883 53.9102C122.518 53.9102 122.215 53.985 121.975 54.1348C121.74 54.278 121.564 54.4766 121.447 54.7305C121.337 54.9779 121.281 55.2578 121.281 55.5703C121.281 55.8047 121.337 56.0163 121.447 56.2051C121.564 56.3874 121.724 56.5534 121.926 56.7031C122.128 56.8464 122.365 56.9863 122.639 57.123C122.919 57.2598 123.225 57.3932 123.557 57.5234C124.201 57.7773 124.771 58.0573 125.266 58.3633C125.76 58.6628 126.174 59.0013 126.506 59.3789C126.838 59.75 127.089 60.1699 127.258 60.6387C127.427 61.1074 127.512 61.6413 127.512 62.2402C127.512 62.8327 127.408 63.373 127.199 63.8613C126.997 64.3431 126.701 64.7598 126.311 65.1113C125.92 65.4564 125.448 65.7233 124.895 65.9121C124.348 66.1009 123.736 66.1953 123.059 66.1953C122.401 66.1953 121.779 66.1042 121.193 65.9219C120.607 65.7331 120.09 65.4499 119.641 65.0723C119.198 64.6882 118.85 64.2031 118.596 63.6172C118.342 63.0247 118.215 62.3249 118.215 61.5176H121.076C121.076 61.9473 121.118 62.3151 121.203 62.6211C121.288 62.9206 121.418 63.1615 121.594 63.3438C121.77 63.5195 121.984 63.653 122.238 63.7441C122.499 63.8288 122.795 63.8711 123.127 63.8711C123.505 63.8711 123.804 63.7995 124.025 63.6562C124.253 63.513 124.416 63.321 124.514 63.0801C124.611 62.8392 124.66 62.5658 124.66 62.2598Z" fill="url(#paint1_linear_115_213)"/>
<defs>
<linearGradient id="paint0_linear_115_213" x1="208.929" y1="80.3606" x2="11.1618" y2="0.41943" gradientUnits="userSpaceOnUse">
<stop stop-color="#44E9FF"/>
<stop offset="1" stop-color="#A93CFF"/>
</linearGradient>
<linearGradient id="paint1_linear_115_213" x1="47.2892" y1="57.3333" x2="160.356" y2="82.0415" gradientUnits="userSpaceOnUse">
<stop stop-color="#A93CFF"/>
<stop offset="1" stop-color="#44E9FF"/>
</linearGradient>
</defs>
</svg>
